<svg id="Ebene_1" data-name="Ebene 1" xmlns="http://www.w3.org/2000/svg" viewBox="0 0 51.866 55.288"><defs><style>.cls-1,.cls-4,.cls-5{fill:none;}.cls-2,.cls-6{fill:#fff;}.cls-3,.cls-6{fill-rule:evenodd;}.cls-4{stroke:#000;stroke-width:0.499px;}.cls-4,.cls-5{stroke-linecap:square;stroke-miterlimit:10;}.cls-5{stroke:#fff;stroke-width:0.8px;}</style></defs><title>51122_500_7h_5P</title><path class="cls-1" d="M24.849,52.959v.027l0,.038v.042l0,.042,0,.038,0,.041,0,.038,0,.038,0,.038,0,.02a3.3,3.3,0,0,1-.026-.368Z" transform="translate(-2.079 -1.842)"/><path class="cls-1" d="M31.093,53.405l0-.042.006-.034,0-.042,0-.038.008-.038v-.038l0-.041,0-.041,0-.038v-.008l0-.013v-.014l0-.014v-.041a3.006,3.006,0,0,1-.03.453Z" transform="translate(-2.079 -1.842)"/><polygon class="cls-1" points="22.77 51.092 22.77 51.093 22.77 51.091 22.77 51.092"/><path class="cls-2" d="M52.864,27.479l0-.16,0-.162,0-.159-.008-.159-.007-.159-.006-.162-.008-.156-.009-.158-.011-.16-.013-.158-.011-.156-.014-.159-.013-.155-.018-.16L52.72,25.1l-.017-.156-.018-.158-.017-.156-.021-.152-.02-.159-.024-.152-.025-.156-.021-.155L52.53,23.7l-.024-.153-.028-.155-.027-.152-.032-.149-.027-.155-.031-.152-.031-.149-.035-.152-.031-.152-.035-.152-.034-.148-.038-.153-.034-.148-.038-.149-.042-.148-.038-.149-.041-.148-.041-.146-.042-.148-.045-.149L51.8,20.55l-.045-.145-.045-.148-.048-.146-.049-.145-.048-.141-.049-.146-.051-.145-.049-.145-.055-.142-.052-.141-.051-.145-.056-.139-.055-.141-.055-.142-.059-.142-.059-.138-.055-.141-.062-.139-.058-.138-.062-.138-.063-.138-.062-.139-.062-.138-.065-.135-.063-.134-.065-.138-.07-.135-.068-.135-.066-.135-.072-.131-.07-.135-.068-.135-.07-.131-.076-.131-.072-.135-.072-.128-.073-.131-.076-.128-.076-.131-.076-.128-.079-.132-.076-.124-.083-.131-.079-.125-.08-.127-.08-.125-.082-.128-.083-.121-.086-.127-.083-.125-.083-.121-.086-.124-.086-.121-.087-.121-.086-.124-.09-.118-.09-.121-.089-.121-.09-.117-.094-.122-.089-.113-.093-.118-.093-.117-.094-.118-.1-.114-.094-.114-.1-.114-.1-.114-.1-.114-.1-.114-.1-.11-.1-.114-.1-.108-.1-.11-.1-.111-.1-.107-.1-.111-.1-.107-.1-.107-.1-.107-.106-.107-.105-.1-.106-.1-.107-.1-.107-.1-.107-.1-.11-.1-.111-.1-.111-.1-.106-.1-.114-.1-.111-.1-.114-.1-.114-.1-.114-.1L43.934,8.7l-.114-.1-.114-.1-.117-.093-.117-.094-.118-.093-.114-.09-.12-.09L43,7.955l-.12-.09-.122-.089-.117-.091L42.519,7.6l-.12-.086-.122-.087-.12-.086-.124-.083-.125-.083-.124-.083-.125-.086-.127-.083-.125-.079-.124-.08-.128-.08L41.028,6.6,40.9,6.525l-.128-.077-.127-.079L40.514,6.3l-.132-.079-.131-.073-.127-.072L39.989,6l-.131-.076-.132-.069-.134-.069-.132-.069-.134-.073-.135-.065-.135-.07-.134-.069-.135-.062-.135-.065-.137-.066-.138-.062-.138-.063L38.1,5.059,37.963,5l-.138-.059-.139-.062-.141-.055-.138-.059L37.266,4.7l-.142-.055-.142-.055-.138-.055L36.7,4.486l-.141-.052-.142-.055-.145-.049-.145-.051-.145-.049-.141-.048L35.7,4.133l-.146-.048L35.4,4.04,35.256,4l-.145-.041-.148-.045-.149-.042-.145-.041-.148-.042-.149-.038-.148-.041-.149-.038-.148-.035-.151-.038-.149-.034-.152-.035-.152-.031-.152-.035-.148-.03L32.871,3.4l-.155-.028-.149-.031-.152-.028-.155-.028-.152-.024-.155-.028-.156-.02-.155-.024-.152-.025-.155-.02-.156-.021L31.024,3.1l-.158-.018-.156-.017-.155-.017L30.4,3.035,30.24,3.02l-.158-.013L29.926,3l-.158-.013-.16-.01-.158-.011-.156-.007-.161-.007-.159-.007-.16-.007-.158,0-.162,0-.159,0-.163,0-.158,0-.162,0-.162,0-.159,0-.163,0-.158,0-.159.007-.159.007-.162.007-.155.007-.159.011-.159.01L26.1,3l-.155.011-.159.013-.155.015-.159.017-.156.017-.155.017L25,3.1l-.155.017-.156.021-.155.02-.151.025-.156.024-.155.02-.156.028-.152.024-.155.028-.151.028-.149.031-.155.028L23,3.429l-.149.03-.152.035-.152.031L22.4,3.56l-.149.034-.152.038-.148.035-.148.038-.149.041-.148.038-.149.042-.145.041-.148.042-.149.045L20.768,4l-.145.045-.148.045-.145.048-.145.049-.141.048-.146.049-.145.051-.144.049-.142.055-.142.052-.145.052-.138.055-.141.055-.142.055-.141.059-.139.059-.141.055-.138.062L18.062,5l-.142.062-.134.062-.138.063-.138.062-.135.066-.138.065-.135.062-.135.069-.134.07-.134.065-.135.073-.131.069-.135.069-.132.069L16.036,6l-.135.073-.128.072-.131.073-.131.079-.128.073-.128.079-.127.077L15,6.6l-.127.079-.128.08-.124.08-.124.079-.128.083-.124.083-.125.086-.124.083-.121.083-.124.086-.121.087-.12.086-.125.086-.118.091-.12.089-.121.09-.117.093-.121.09-.114.09-.117.093-.118.094-.117.093-.114.1-.114.1-.114.093-.114.1-.114.1-.113.1-.111.1-.114.1-.107.1-.11.1-.111.1-.107.1-.11.1-.108.1-.107.1-.107.1-.1.107-.107.1-.1.107-.1.107-.1.107-.1.111-.1.107-.1.111-.1.11-.1.108-.1.114-.1.11-.1.114-.1.114-.1.114-.1.114-.093.114-.1.114-.093.118-.093.117-.094.118-.089.113-.094.122-.089.117-.09.121-.09.121-.089.118-.087.124-.086.121-.086.121-.087.124-.082.121-.083.125-.087.127-.083.121-.082.128-.08.125L7,14.52l-.08.125-.079.131-.079.128-.08.128L6.6,15.16l-.073.128-.079.131-.073.131-.072.128-.073.135-.076.131-.069.131-.069.135-.069.135-.073.131-.065.135-.069.135-.069.135-.062.134-.066.138-.066.135-.062.138-.062.139-.062.135-.062.141-.059.138-.062.139-.055.141L5,18.4l-.059.142-.055.142-.055.141-.055.139-.052.145-.052.141-.055.142-.048.145-.052.145-.048.146-.049.141-.048.145-.048.146-.045.148-.045.145-.042.145-.044.149-.042.148-.041.146-.042.148-.038.149-.041.148-.038.149-.035.148-.038.153-.034.148-.035.152-.031.152-.034.152-.031.149-.031.152-.028.155-.031.149-.028.152-.027.155-.025.153-.027.155-.021.155-.024.156L3.4,24.32l-.021.159-.021.152-.017.156-.017.158-.017.156-.017.155-.018.16-.013.155-.015.159-.01.156-.013.158-.011.16-.011.158-.006.156-.007.162-.007.159L3.17,27l0,.159,0,.162,0,.16,0,.162,0,.162,0,.146,0,.145v.141l0,.145,0,.142.008.145,0,.142.007.145.007.142.006.145.011.141.011.142.01.145.01.142.014.139.01.144.014.142.014.138.014.142.017.142.017.141.014.138.021.142.017.139.021.141.02.138.021.138.021.142.024.139.024.138.024.138.024.138.028.138.024.134.028.14.027.138.031.134.028.138.031.135.031.138.031.135.031.135.035.138.035.131.034.135L4,34.234l.038.135.039.134.037.132.035.135.041.131.038.131.042.134.041.132.042.131.045.132.041.131.045.131.045.128.045.132.045.131.048.131.048.128.049.128.048.127.051.129.049.128.051.127.052.128.052.127.052.125.055.129.055.124.056.128L5.338,38l.055.125.059.124.055.124.062.125.059.12.059.125.062.121.058.124.063.121.062.121.062.121.065.12.066.122.062.121.069.117.065.121.066.117.066.119.069.12.069.118.069.114.072.117.069.118.073.117L6.943,41l.076.114.072.114.073.118.072.114.08.114.072.111.076.113.076.111.08.114.079.111.076.11.08.11.079.108.083.11.083.111.079.107.083.11.082.108.083.107.083.107.086.107.083.1.087.1.086.107.086.1.087.1.089.1.087.1.089.1.09.1.09.1.09.1.093.1.093.1.09.1.093.1.093.1.093.1.1.1.094.1.1.1.1.1.093.1.1.093.1.093.1.1.1.094.1.09.1.093.1.094.1.089.1.09.1.09.1.09.1.093.1.087.1.089.107.087.1.086.107.087.1.086.107.083.107.086.107.086.111.084.107.083.107.082.107.081.11.082.111.08L13.5,48l.114.079.11.08.111.079.11.079.114.076.114.076.114.077.114.072.117.076.114.076.114.073.118.072.117.073.117.073.117.069.114.069.121.073.118.068.12.07.118.069.121.065.12.066.121.066.121.065.121.066.12.062.122.066.124.063.124.062.124.062.125.058.124.062.124.059.124.055.125.062.127.056.128.058.124.056.128.055.128.056.127.052.128.054.131.052.128.053.131.052.128.051.131.049.131.048.132.048.131.048.131.046.131.048.131.044.135.046.131.044.135.045.134.042.135.042.135.041.134.041.135.038.135.038.134.042.138.038.138.035.135.038.138.03.134.038.142.035.135.031.141.035.138.031.138.028.139.03.141.032.142.027.137.028.142.027.142.029.141.024.138.024.145.023.142.025.141.021.116.017h0l.026,0,.014,0h.014l.014,0,.014,0,.01,0,.014,0,.014,0,.013.007.011,0,.014,0,.01.007.014.007.01,0,.014.007.01.007.011.006.01.008.013.007.011.007.011.007.01.011.01.006.011.01.006.007.011.01.01.008,0,.007.009.01h0l0,0,.005.008.008.005,0,0v0l.008.01.007.011.01.009.006.011.007.013.008.011.007.011.006.01,0,.012,0,.006,0,.006.007.011,0,.014.007.01,0,.014,0,.009v.007l0,0,0,.008,0,.01v.006l0,.014,0,.014v0l0,.009,0,.015v.014l0,.013v.042l0,.01,0,.008a3.3,3.3,0,0,0,.026.368l0,.022.007.041,0,.035.007.041.007.035.006.041.011.038.007.038.007.035.01.038.011.041.01.034.01.038.011.038.01.035.014.035.01.038.014.035.014.038.014.033.013.035.017.038.011.032.017.038.018.034.017.034.013.032.018.035.017.034.017.031.017.034.021.035.017.035.021.031.017.031.021.03.021.032.021.031.02.031.021.031.021.028.024.034.024.032.021.027.02.032.028.027.024.028.021.027.028.027.024.032.024.028.028.027.024.028.024.024.031.031.024.025.028.027.027.024.025.024.031.025.027.024.031.024.024.025.032.024.031.024.027.024.031.02.031.021.031.025.032.02.031.021.031.021.031.02.031.021.034.017.031.021.031.017.032.018.034.021.035.017.031.017.038.018.03.016.035.014.034.018.035.017.038.014.035.013.034.014.031.014.038.014.038.01.038.014.035.014.034.01.038.011.035.01.038.011.038.006.038.014.034.007.038.008.038.009L27.4,56l.038.007.038.007.038,0,.038.008.042.006.038,0,.038.007h.038l.041,0,.042,0,.038,0,.041,0h.242l.038,0,.041,0,.035,0,.041,0h.041l.035-.007.041,0,.038,0,.035-.007.038-.007L28.535,56,28.57,56l.041-.007.038-.006.035-.008.037-.006.038-.014.035-.007.038-.011.035-.01.038-.01.034-.014.038-.007.035-.014.038-.013.034-.014.031-.01.038-.014.035-.014.03-.018.038-.014.035-.016.032-.014.033-.018.035-.017.035-.014.031-.018.031-.016.034-.021.032-.014.03-.02.035-.021.032-.017.03-.021.028-.021.034-.021.031-.021.032-.021.027-.02.031-.024.028-.021.031-.024.031-.025.028-.021.027-.024.028-.023.027-.021.027-.028.029-.024.027-.024.028-.028.024-.024.028-.028.024-.024.024-.028.027-.027.025-.028.024-.027.024-.029.025-.027.024-.031.02-.027.024-.029.024-.03.021-.028.025-.031.02-.031.021-.027.021-.032.02-.035.018-.027.02-.035.021-.031L30.7,54.5l.017-.031.017-.031.018-.034.02-.032.018-.035L30.8,54.3l.017-.032.017-.038.015-.031.017-.034.014-.035L30.9,54.1l.017-.035.011-.034L30.937,54l.014-.038.011-.038.013-.032.011-.034.01-.038.014-.038.011-.034.006-.035.011-.041.007-.038.011-.035.006-.041.007-.035.011-.038.006-.038.005-.027a3.006,3.006,0,0,0,.03-.453V52.9l0-.014,0-.011v-.013l0-.014,0-.014,0-.01,0-.014,0-.014,0-.01,0-.014.008-.011,0-.013.007-.011,0-.013.006-.011.007-.011.008-.013,0-.011.006-.009.011-.011.007-.01.006-.011.008-.011.01-.01.007-.01.007-.01.011-.011.009-.007.007-.01.011-.007.011-.01.009-.007.011-.01.01-.008.011-.006.01-.007.01-.007.01-.007.014-.008.011-.006.01-.007.014-.007.01,0,.014-.007.011,0,.013-.008.014,0,.011,0,.013,0,.014,0,.014,0,.013,0,.014,0h.014l.142-.02.142-.021.144-.024.141-.025.143-.024.141-.024.138-.027.142-.028.141-.027L33,52.174l.143-.027.137-.031.138-.028.142-.034.137-.032.138-.03.139-.035.138-.035.138-.035.135-.038.138-.033.134-.038.138-.038.138-.038.135-.042.135-.042.134-.038.135-.045.131-.041.135-.041.134-.046L36,51.362l.134-.044.135-.046.127-.048.136-.048.127-.045.131-.052.132-.051.131-.049.127-.048.132-.056.131-.052.127-.052.128-.054.128-.056.127-.052.128-.059.124-.055.128-.055.124-.062.128-.056.124-.062.125-.058.124-.059.125-.062.123-.063.122-.062.124-.065.12-.062.125-.063.121-.069.12-.066.121-.065.121-.07.118-.065.12-.07.118-.068.117-.07.121-.068.118-.07.114-.076.117-.068.117-.073.117-.073.114-.076.118-.076.111-.076.117-.073.114-.079.11-.076.114-.076.11-.08.114-.079.11-.079.111-.08.111-.079.11-.084.11-.082.107-.08.108-.082.11-.087.107-.083.107-.087.107-.083.106-.085.1-.087.106-.086.1-.087.1-.089.1-.091.1-.09.1-.086.1-.093.1-.09.1-.089.1-.094.1-.09.1-.094.1-.092.1-.1.1-.092.1-.094.1-.1.1-.1.1-.1.093-.1.1-.1.092-.1.093-.1.094-.1.093-.1.093-.1.09-.1.093-.1.09-.1.09-.1.089-.1.087-.1.089-.1.087-.1.086-.1.087-.106.086-.1.086-.106.083-.105.086-.106.083-.108.083-.106.079-.111.087-.108.079-.11.079-.11.08-.108.079-.11.079-.114.08-.111.08-.111.075-.114.076-.114.076-.11.076-.114.073-.114.076-.114L49,41.135l.072-.115.073-.117.073-.114.072-.117.069-.118.069-.117.065-.114.073-.118.065-.121.066-.118.069-.12.066-.118.065-.121.067-.121.061-.121.062-.121.066-.121L50.207,39l.062-.121.062-.12.059-.125.058-.124.059-.122.059-.124.058-.128.056-.124.058-.128.052-.121.056-.128.055-.124.051-.128.055-.128.048-.128L51.107,37l.052-.127.053-.129.047-.128.049-.127.045-.128.048-.132.045-.13.048-.128.046-.132.044-.135.041-.128.045-.13.042-.135.041-.132.042-.131.038-.135.041-.131.035-.135.041-.135.038-.132.035-.133.033-.135.035-.135.035-.135.035-.134.03-.139.032-.135.034-.135.028-.135.031-.138.027-.138.032-.135.024-.138.028-.138.027-.138.024-.139.025-.138.024-.138.024-.138.02-.141.021-.139.02-.138.021-.142.017-.138.021-.142.014-.141.018-.142.017-.138.014-.142.013-.142.014-.142.011-.145.013-.138.011-.145.01-.142.011-.141.009-.142.008-.145.006-.142.007-.145,0-.142.007-.145,0-.141,0-.149v-.141l0-.145,0-.146,0-.162Z" transform="translate(-2.079 -1.842)"/><path d="M53.942,27.634v-.166l0-.166,0-.169,0-.166-.008-.166-.006-.169-.007-.163L53.9,26.3l-.01-.166-.01-.166-.011-.166-.013-.166-.014-.162-.018-.166-.014-.163-.016-.162-.018-.166-.021-.159-.021-.165-.021-.163-.02-.159-.024-.163-.024-.162-.025-.162-.027-.159-.024-.159-.028-.159-.031-.162-.031-.159-.027-.16-.035-.158-.031-.159-.034-.156-.038-.159-.035-.155-.035-.159-.038-.156-.038-.155-.041-.156-.041-.155-.038-.156L53,20.851l-.042-.156-.045-.152-.044-.152-.049-.155-.044-.152-.049-.152-.048-.153-.049-.151-.051-.152-.052-.149-.052-.149-.056-.152-.051-.148-.055-.149-.055-.148-.059-.149-.055-.149-.062-.145-.056-.145-.062-.148-.062-.145-.062-.146-.062-.145-.066-.145-.061-.145-.067-.142-.065-.145-.066-.142-.069-.141-.069-.142-.068-.142-.073-.141-.073-.138-.068-.142-.073-.138-.076-.138-.073-.139-.076-.138-.076-.135-.076-.138-.079-.135-.076-.138-.079-.135-.083-.135-.079-.131-.084-.134-.079-.135-.086-.132-.083-.131-.086-.131-.086-.132-.087-.131-.082-.127-.091-.132-.09-.128-.089-.128-.09-.128-.09-.127-.092-.125-.09-.127-.094-.125-.093-.124-.094-.125-.1-.121-.1-.124-.1-.124-.1-.122-.1-.12-.1-.118-.1-.121-.1-.121-.1-.117-.1-.118-.1-.117-.1-.118-.1-.114-.1-.117-.108-.118-.1-.114-.106-.11-.108-.115-.107-.11-.107-.114-.11-.111-.111-.11-.11-.111-.111-.11-.11-.107L45.9,9.012,45.788,8.9l-.11-.107-.114-.1-.117-.108-.118-.1-.114-.1-.117-.1-.117-.1-.118-.1-.118-.1-.117-.1-.124-.1-.117-.1-.122-.1-.12-.1-.124-.1-.125-.1-.12-.1L43.652,7.1,43.527,7,43.4,6.908l-.128-.09-.124-.093-.128-.09-.128-.09-.127-.089-.128-.091-.132-.089-.127-.087-.131-.083-.131-.086-.132-.086-.13-.083-.132-.083-.134-.083L41.459,5.6l-.134-.08-.135-.083-.138-.079-.134-.076-.135-.079-.138-.077-.135-.076-.138-.076L40.234,4.9,40.1,4.828l-.138-.073-.142-.069-.137-.072-.143-.073L39.4,4.472,39.254,4.4l-.142-.066-.141-.069L38.828,4.2l-.144-.065-.145-.066-.145-.062-.141-.063L38.1,3.884l-.144-.062-.149-.062-.146-.055-.144-.062-.149-.056-.149-.058-.147-.055-.149-.056-.149-.052-.152-.055-.148-.052-.148-.052-.152-.052-.152-.048-.152-.049-.151-.048-.152-.044-.157-.049-.151-.045-.152-.045-.155-.041L34.8,2.741,34.646,2.7l-.156-.042-.155-.041-.155-.038-.157-.038-.158-.034-.155-.035-.159-.038L33.4,2.4l-.159-.031-.159-.035-.159-.027-.158-.031L32.6,2.247l-.16-.028-.158-.024-.159-.028-.163-.024L31.8,2.119l-.162-.025-.159-.02-.162-.021-.163-.021-.162-.02-.166-.018-.161-.017L30.5,1.963l-.166-.017-.162-.014-.166-.014-.165-.01-.163-.01-.17-.011-.165-.01L29.18,1.87l-.168-.007-.166-.007-.166,0-.17,0-.165,0h-.166l-.165,0-.169,0h-.166l-.166,0-.169,0-.166,0-.165.007-.169.007-.162.007-.166.01-.169.011-.163.01-.165.01-.166.014-.162.014-.166.017-.162.014-.163.017-.165.018-.163.02-.161.021-.163.021-.159.02-.162.025-.162.024-.162.024-.159.028-.159.024-.159.028-.162.031-.159.031-.158.027-.159.035-.159.031-.155.035-.159.038-.156.035L22,2.544l-.155.038-.155.038-.155.041-.156.042-.155.038-.155.045-.156.041-.152.045-.152.045-.155.049L20.3,3.01l-.151.048L20,3.107l-.153.048-.152.052-.148.052-.148.052-.152.055-.149.052-.148.056-.148.055-.149.058-.148.056-.145.062-.145.055-.149.062-.145.062-.145.062-.145.063-.145.066-.145.062L17.2,4.2l-.145.066-.142.069-.141.066-.141.069-.142.069-.142.073-.138.072-.141.069-.138.073L15.79,4.9l-.138.072-.138.076-.134.076-.138.077-.135.079-.134.076-.139.079-.135.083-.134.08-.131.083-.135.083-.131.083-.131.083-.131.086-.132.086-.131.087-.127.083-.132.089-.127.091-.128.089L13,6.635l-.127.09-.125.093-.127.09L12.5,7l-.124.094-.124.093-.121.1-.124.1-.125.1-.121.1-.12.1-.117.1-.125.1-.117.1-.118.1-.117.1-.117.1-.118.1-.114.1-.117.1-.117.108-.114.1-.111.107-.113.107-.111.108L9.9,9.227l-.11.11-.111.111-.11.11-.111.111-.107.114-.107.11-.107.115-.107.11-.1.114-.107.118-.1.117-.1.114-.1.118-.1.117-.1.118-.1.117-.1.121-.1.121-.1.118-.1.12-.1.122-.1.124-.1.124-.1.121-.093.125-.093.124L7.14,12.4l-.09.127-.093.125-.09.127-.089.128-.09.128-.09.128-.09.132-.083.127-.086.131-.087.132-.085.131-.083.131L6,14.075l-.079.135-.083.131-.079.134-.083.135-.08.139-.076.134-.079.135-.076.138-.076.135-.076.138-.072.139-.076.138-.073.138-.069.142-.072.138-.073.141-.069.142-.069.145-.065.138-.069.142-.066.145-.066.142-.062.145-.065.145-.062.145-.063.146-.062.145L4,17.993l-.055.145-.062.145-.056.149-.058.149-.056.148-.055.149-.051.148-.056.152-.052.149-.051.149-.052.152-.048.151-.048.153-.049.152-.045.152-.048.155-.045.152-.045.152-.041.156-.045.155-.038.156-.042.155-.041.156-.038.155-.038.156-.034.159-.035.155-.038.159-.034.156-.032.159-.034.158-.028.16-.031.159-.031.162-.027.159-.025.159-.027.159-.024.162-.025.162-.024.163-.02.159L2.29,24.5l-.021.165-.021.159-.017.166-.017.162-.014.163-.017.166-.014.162-.014.166-.01.166-.011.166-.01.166-.01.165-.007.163L2.1,26.8l-.007.166,0,.166,0,.169,0,.166v.166l0,.169,0,.149V28.1l0,.152,0,.149,0,.152,0,.149.007.152,0,.148.007.149.01.149.007.148.01.148.011.149.01.149.014.149.014.147.013.146.014.149.018.145.013.149.018.147.02.146.018.146.02.148.021.145.021.145.024.145.021.145.024.146.024.141.028.149.024.141.027.142.025.145.031.146.031.141.027.141.031.146.031.141.035.143.031.141.035.138.034.141.035.143.038.141.038.141L3,34.652l.038.138.038.142.041.138.041.134.041.143.042.138.041.138.046.135.044.138.045.138.045.135.048.138.049.134.048.135.048.135.049.135.051.135.052.134.052.135.052.132.052.134.055.132.055.135.055.128.056.135.058.13.055.132.059.128.059.131.059.131.062.128.058.128.063.132.065.127.062.128.062.127.066.129.065.124.066.128.069.128.066.124.065.125.069.124.069.125.069.124.073.124.069.121.072.124.073.121.072.125.076.121.073.117.076.122.076.124.076.117.076.121.079.117.076.119.08.12.079.114.082.118.08.117.08.117.082.115.083.114.086.117.083.114.083.114.086.111.087.113.086.114.086.111.087.111.086.11.093.114.086.108.09.11.09.11.093.108.09.106.093.108.093.108.093.106.094.108.1.1.093.108.1.1.1.1.1.1.1.1.1.1.1.1.1.1.1.1.1.1.1.1.1.1.1.1.1.1.1.1.1.1.1.1.1.1.107.093.1.1.107.093.107.094.107.092.107.091.11.093.111.093.107.09.111.09.11.09.11.089.111.09.11.083.114.09.111.086.117.087.114.086.114.084.114.082.114.083.117.087.114.082.117.08.121.079.114.084.121.079.117.079.117.08.121.076.118.079.124.076.121.076.121.073.12.076.121.076.125.072.124.073.124.073.125.072.124.069.124.07.128.072.124.066.128.069.127.069.125.066.13.065.129.065.127.067.128.062.131.065.128.063.131.062.128.062.134.058.131.062.132.059.134.059.132.059.131.055.134.055.135.056.134.055.135.056.135.055.138.048.134.055.135.049.135.051.138.049.138.051.138.049.138.048.138.046.142.048.138.045.138.045.141.041.138.041.142.046.141.041.142.042.142.038.141.038.142.041.145.038.141.038.145.035.142.034.145.034.145.035.145.032.145.033.148.032.145.027.145.032.145.031.149.027.145.024.148.032.149.024.148.025.015,0,0,.018,0,.051.007.052.011.056.007.048.01.055.01.049.011.051.01.049.014.055.01.048.014.049.014.051.017.053.014.045.014.051.017.049.017.048.017.052.018.048.017.046.021.047.017.046.021.051.02.046.021.044.021.045.024.049.021.044.024.045.024.046.024.044.024.045.024.042.028.045.028.044.024.042.028.042.031.045.024.038.031.044.027.042.032.038.027.041.031.038.034.042.032.038.031.042.034.038.032.038.034.033.031.038.035.038.034.035.038.038.035.035.034.038.034.032.038.033.042.035.034.035.038.03.038.035.042.032.038.03.038.032.041.031.038.031.042.028.041.03.041.028.042.028.045.031.041.027.042.025.041.027.045.024.045.029.045.024.041.024.048.02.045.028.042.021.048.021.045.024.048.02.049.021.045.017.044.021.049.021.052.017.048.017.044.018.049.017.048.018.048.013.053.014.048.017.051.014.049.013.051.011.052.011.052.013.048.011.049.01.055.011.052.006.052.011.051.007.052,0,.052.011.055,0,.052.006.052,0,.052,0,.055,0h.055l.052,0h.21l.056,0H28.2l.052,0,.055,0,.052,0,.048-.006.056,0,.052-.007.048-.007.055-.007.052-.011.048-.006.052-.011.049-.007.048-.011.055-.013.048-.011.049-.009.052-.014.047-.015.049-.013.048-.017.049-.011.048-.017.049-.018.047-.013.045-.017.052-.021.045-.017.048-.021.048-.017.046-.021.041-.021.048-.02.045-.022.045-.024.045-.024.045-.02.045-.024.041-.025.044-.024.043-.024.041-.024.045-.028.041-.027.045-.029.038-.027.042-.028.041-.027.041-.028.038-.031.042-.031.038-.031.038-.028.041-.034.035-.031.038-.032.041-.035.035-.03.038-.035.034-.035.035-.03.037-.038.035-.035.034-.035.035-.035.035-.038.03-.033.035-.038.032-.038.033-.038.032-.038.031-.039.031-.041.028-.038.03-.042.028-.038.031-.042.031-.041.024-.041.028-.038.028-.048.028-.038.027-.042.024-.045.024-.041.025-.045.024-.046.024-.044.02-.041.025-.046.021-.048.02-.041.024-.049.021-.045.017-.049.021-.044.017-.045.021-.052.017-.048.018-.045.017-.045L32,54.22l.014-.048.017-.049.011-.048.013-.049.014-.051.014-.049.014-.052.01-.051.011-.045.01-.052.01-.052.01-.052.008-.051.006-.049.007-.055.006-.044h0l.147-.024.149-.025.149-.027.149-.027.144-.028.146-.028.147-.031.146-.027.147-.032.146-.035.141-.03.149-.035.141-.035L34.227,53l.145-.035.145-.038.142-.038.142-.037.144-.038.138-.043.142-.041.145-.038.138-.041.142-.045.141-.041.141-.049.138-.041.139-.049.141-.045.135-.048.138-.049.142-.047.135-.049.138-.051.134-.053.138-.048.135-.056.135-.054.134-.052.135-.056.135-.055.134-.056.135-.055.13-.059.135-.058.131-.059.132-.062.131-.059.131-.062.132-.059.13-.066.128-.062.132-.062.127-.066.128-.068.128-.062.13-.07.125-.065.127-.07.125-.069.128-.069.124-.069.124-.072.125-.07.127-.072.121-.073.124-.072.121-.076.124-.073.121-.076.121-.076.121-.079.121-.077.12-.076.121-.079.118-.079.117-.08.118-.079.117-.084.12-.082.114-.08.118-.082.114-.084.117-.086.114-.083.114-.086.114-.086.114-.087.11-.086.114-.087.111-.09.11-.089.111-.091.11-.09.11-.089.108-.093.11-.091.107-.093.107-.092.11-.094.1-.093.107-.094.107-.1.1-.1.1-.1.1-.1.1-.1.1-.1.1-.1.1-.1.1-.1.1-.1.1-.1.1-.1.1-.105.1-.1.1-.1.1-.1.094-.1.1-.1.094-.107.1-.1L47.432,45l.092-.107.093-.107.094-.107.093-.107.09-.108.093-.11.09-.111.087-.107.089-.11.09-.114.086-.111.09-.114.085-.11.087-.114.083-.111.087-.114.082-.114.083-.118.087-.114.082-.117.079-.114.08-.118.083-.117.08-.117.076-.118.079-.122.079-.117.076-.117.079-.121.073-.121.076-.121.076-.121.072-.121.073-.12.076-.125.072-.124.069-.122.073-.124.069-.125.068-.124.07-.124.068-.125.067-.124.065-.128.069-.128.062-.124.065-.128.066-.127.062-.129.062-.128.063-.13.062-.129.062-.131.055-.127.062-.132.056-.128.058-.135.059-.131.055-.132.059-.13L52,37.665l.054-.135.053-.134.055-.132.052-.135.051-.134.049-.135.052-.135.048-.135.049-.134.048-.139.044-.134.049-.138.044-.138.046-.135.045-.138.041-.139.041-.138.045-.138.038-.138.042-.138.038-.14.038-.141.041-.138.034-.141.039-.143.034-.138.034-.144.035-.139.035-.142.03-.144.035-.143.027-.141.032-.141.027-.146.031-.141.027-.146.029-.144.024-.143.028-.144.024-.146.02-.144.024-.146.025-.145.021-.145.02-.149.018-.145.02-.145.021-.148.013-.146.017-.149.018-.148.014-.148.014-.145.013-.149.014-.149.011-.149.01-.148.011-.148L53.9,29.3l.011-.148L53.918,29l0-.148.006-.152.005-.149,0-.148,0-.153,0-.152v-.148l0-.149Zm-1.074.315,0,.145v.141l0,.149,0,.141-.007.145,0,.142-.007.145-.006.142-.008.145-.009.142-.011.141-.01.142-.011.145-.013.138-.011.145-.014.142-.013.142-.014.142-.017.138-.018.142-.014.141-.021.142-.017.138-.021.142-.02.138-.021.139-.02.141-.024.138-.024.138-.025.138-.024.139-.027.138-.028.138-.024.138-.032.135-.027.138-.031.138-.028.135-.034.135-.032.135-.03.139-.035.134-.035.135-.035.135-.033.135-.035.133-.038.132-.041.135-.035.135-.041.131-.038.135-.042.131-.041.132-.042.135-.045.13-.041.128-.044.135-.046.132-.048.128-.045.13-.048.132-.045.128-.049.127-.047.128-.053.129L51.107,37l-.052.128-.048.128-.055.128-.051.128-.055.124-.056.128-.052.121-.058.128-.056.124-.058.128-.059.124-.059.122-.058.124-.059.125-.062.12L50.207,39l-.059.124-.066.121-.062.121-.061.121-.067.121-.065.121-.066.118-.069.12-.066.118-.065.121-.073.118-.065.114-.069.117-.069.118-.072.117-.073.114-.073.117L49,41.135l-.072.117-.076.114-.073.114-.076.114-.076.11-.076.114-.075.114-.08.111-.08.111-.079.114-.079.11-.08.108-.079.11-.079.11-.087.108-.079.111-.083.106-.083.108-.086.106-.083.105-.086.106-.086.1-.087.106-.086.1-.087.1-.089.1-.087.1-.089.1-.09.1-.09.1-.093.1-.09.1-.093.1-.093.1-.094.1-.093.1-.092.1-.1.1-.093.1-.1.1-.1.1-.1.1-.1.094-.1.092-.1.1-.1.092-.1.094-.1.09-.1.094-.1.089-.1.09-.1.093-.1.086-.1.09-.1.091-.1.089-.1.087-.106.086-.1.087-.106.085-.107.083-.107.087-.107.083-.11.087-.108.082-.107.08-.11.082-.11.084-.111.079-.111.08-.11.079-.114.079-.11.08-.114.076-.11.076-.114.079-.117.073-.111.076-.118.076-.114.076-.117.073-.117.073-.117.068-.114.076-.118.07-.121.068-.117.07-.118.068-.12.07-.118.065-.121.07-.121.065-.12.066-.121.069-.125.063-.12.062-.124.065-.122.062-.123.063-.125.062-.124.059-.125.058-.124.062-.128.056-.124.062-.128.055-.124.055-.128.059-.127.052-.128.056-.128.054-.127.052-.131.052-.132.056-.127.048-.131.049-.132.051-.131.052-.127.045-.136.048-.127.048-.135.046L36,51.362l-.132.045-.134.046-.135.041-.131.041-.135.045-.134.038-.135.042-.135.042-.138.038-.138.038-.134.038-.138.033-.135.038-.138.035-.138.035-.139.035-.138.03-.137.032-.142.034-.138.028-.137.031L33,52.174l-.141.029-.141.027-.142.028-.138.027-.141.024-.143.024-.141.025-.144.024-.142.021-.142.02h-.014l-.014,0-.013,0-.014,0-.014,0-.013,0-.011,0-.014,0-.013.008-.011,0-.014.007-.01,0-.014.007-.01.007-.011.006-.014.008-.01.007-.01.007-.01.007-.011.006-.01.008-.011.01-.009.007-.011.01-.011.007-.007.01-.009.007-.011.011-.007.01-.007.01-.01.01-.008.011-.006.011-.007.01-.011.011-.006.009,0,.011-.008.013-.007.011-.006.011,0,.013-.007.011,0,.013-.008.011,0,.014,0,.01,0,.014,0,.014,0,.01,0,.014,0,.014v.013l0,.011,0,.014V53l0,.014v.014l0,.013v.008l0,.038,0,.041,0,.041v.038l-.008.038,0,.038,0,.042-.006.034,0,.042,0,.011-.005.027-.006.038-.011.038-.007.035-.006.041-.011.035-.007.038-.011.041-.006.035-.011.034L31,53.816l-.01.038-.011.034-.013.032-.011.038L30.937,54l-.013.034-.011.034L30.9,54.1l-.013.035-.014.035-.017.034-.015.031-.017.038L30.8,54.3l-.013.033-.018.035-.02.032-.018.034-.017.031L30.7,54.5l-.021.031-.021.031-.02.035-.018.027-.02.035-.021.032-.021.027-.02.031-.025.031-.021.028-.024.03-.024.029-.02.027-.024.031-.025.027-.024.029-.024.027-.025.028-.027.027-.024.028-.024.024-.028.028-.024.024-.028.028-.027.024-.029.024-.027.028-.027.021-.028.023-.027.024-.028.021-.031.025-.031.024-.028.021-.031.024-.027.02-.032.021-.031.021-.034.021-.028.021-.03.021-.032.017-.035.021-.03.02-.032.014-.034.021-.031.016-.031.018-.035.014-.035.017-.033.018-.032.014-.035.016-.038.014-.03.018-.035.014-.038.014-.031.01-.034.014-.038.013-.035.014-.038.007-.034.014-.038.01-.035.01-.038.011-.035.007-.038.014-.037.006-.035.008-.038.006L28.57,56,28.535,56l-.041.007-.038.007-.035.007-.038,0-.041,0-.035.007h-.041l-.041,0-.035,0-.041,0-.038,0h-.242l-.041,0-.038,0-.042,0-.041,0h-.038l-.038-.007-.038,0-.042-.006-.038-.008-.038,0L27.437,56,27.4,56l-.041-.007-.038-.009-.038-.008-.034-.007-.038-.014-.038-.006-.038-.011-.035-.01-.038-.011-.034-.01-.035-.014-.038-.014-.038-.01-.038-.014-.031-.014-.034-.014-.035-.013L26.74,55.8l-.035-.017-.034-.018-.035-.014-.03-.016-.038-.018-.031-.017-.035-.017-.034-.021-.032-.018-.031-.017-.031-.021-.034-.017-.031-.021-.031-.02-.031-.021-.031-.021-.032-.02-.031-.025-.031-.021-.031-.02-.027-.024-.031-.024L26,55.344l-.024-.025-.031-.024-.027-.024-.031-.025-.025-.024-.027-.024-.028-.027-.024-.025-.031-.031-.024-.024-.024-.028-.028-.027-.024-.028-.024-.032-.028-.027-.021-.027-.024-.028-.028-.027-.02-.032-.021-.027-.024-.032-.024-.034-.021-.028-.021-.031-.02-.031-.021-.031-.021-.032-.021-.03-.017-.031-.021-.031-.017-.035-.021-.035-.017-.034-.017-.031-.017-.034-.018-.035-.013-.032-.017-.034-.018-.034-.017-.038-.011-.032-.017-.038-.013-.035-.014-.033-.014-.038-.014-.035-.01-.038L25,53.871l-.01-.035-.011-.038-.01-.038-.01-.034-.011-.041-.01-.038-.007-.035-.007-.038-.011-.038L24.9,53.5,24.9,53.46l-.007-.041,0-.035-.007-.041,0-.022,0-.02,0-.038,0-.038,0-.038,0-.041,0-.038,0-.042v-.042l0-.038v-.033l0-.008,0-.01h0v-.042l0-.013v-.014l0-.015,0-.009v0l0-.014,0-.014V52.8l0-.01,0-.008,0,0v-.007l0-.009,0-.014-.007-.01,0-.014-.007-.011,0-.006,0-.006,0-.012-.006-.01-.007-.011-.008-.011-.007-.013-.006-.011-.01-.009-.007-.011-.008-.01v0l0,0-.008-.005-.005-.008,0,0h0l-.009-.01,0-.007-.01-.008-.011-.01-.006-.007-.011-.01-.01-.006-.01-.011-.011-.007-.011-.007L24.6,52.5l-.01-.008-.011-.006-.01-.007-.014-.007-.01,0-.014-.007-.01-.007-.014,0-.011,0-.013-.007-.014,0-.014,0-.01,0-.014,0-.014,0H24.4l-.014,0-.026,0h0l-.116-.017-.141-.021-.142-.025-.145-.023-.138-.024-.141-.024L23.4,52.25l-.142-.027-.137-.028-.142-.027-.141-.032-.139-.03-.138-.028-.138-.031-.141-.035-.135-.031L22,51.946l-.134-.038-.138-.03-.135-.038-.138-.035-.138-.038-.134-.042-.135-.038-.135-.038-.134-.041-.135-.041-.135-.042-.134-.042-.135-.045-.131-.044-.135-.046-.131-.044-.131-.048-.131-.046-.131-.048-.132-.048-.131-.048-.131-.049-.128-.051-.131-.052-.128-.053-.131-.052-.128-.054-.127-.052-.128-.056-.128-.055-.124-.056-.128-.058-.127-.056-.125-.062-.124-.055-.124-.059-.124-.062-.125-.058-.124-.062L16.778,50l-.124-.063-.122-.066-.12-.062-.121-.066-.121-.065-.121-.066-.12-.066-.121-.065-.118-.069-.12-.07-.118-.068-.121-.073-.114-.069-.117-.069-.117-.073-.117-.073-.118-.072-.114-.073L14.52,48.7l-.117-.076-.114-.072-.114-.077-.114-.076-.114-.076-.11-.079-.111-.079-.11-.08L13.5,48l-.11-.079-.111-.08-.11-.082-.107-.081-.107-.082-.107-.083-.111-.084-.107-.086-.107-.086-.107-.083-.1-.086-.107-.087-.1-.086L12,46.832l-.1-.089-.1-.087-.1-.093-.1-.09-.1-.09-.1-.09-.1-.089-.1-.094-.1-.093-.1-.09-.1-.094-.1-.1-.1-.093-.1-.093-.093-.1-.1-.1-.1-.1-.094-.1-.1-.1-.093-.1-.093-.1-.093-.1-.09-.1-.093-.1-.093-.1-.09-.1-.09-.1-.09-.1-.089-.1-.087-.1-.089-.1-.087-.1-.086-.1-.086-.107-.087-.1-.083-.1-.086-.107-.083-.107-.083-.107L8.262,42.9l-.083-.11L8.1,42.686l-.083-.111-.083-.11-.079-.108-.08-.11-.076-.11-.079-.111-.08-.114L7.464,41.8l-.076-.113-.072-.111-.08-.114-.072-.114-.073-.118-.072-.114L6.943,41l-.069-.114L6.8,40.772l-.069-.118-.072-.117-.069-.114-.069-.118-.069-.12-.066-.119-.066-.117-.065-.121-.069-.117-.062-.121-.066-.122-.065-.12-.062-.121-.062-.121-.063-.121-.058-.124-.062-.121-.059-.125-.059-.12-.062-.125-.055-.124-.059-.124L5.338,38l-.055-.124-.056-.128-.055-.124-.055-.129-.052-.125-.052-.127-.052-.128-.051-.127-.049-.128-.051-.129L4.762,36.6l-.049-.128-.048-.128-.048-.131-.045-.131-.045-.132-.045-.128-.045-.131L4.4,35.561l-.045-.132L4.309,35.3l-.041-.132-.042-.134L4.188,34.9l-.041-.131-.035-.135L4.075,34.5l-.039-.134L4,34.234,3.964,34.1l-.034-.135L3.9,33.833,3.86,33.7l-.031-.135L3.8,33.425l-.031-.138-.031-.135-.028-.138-.031-.134-.027-.138-.028-.14L3.6,32.468,3.57,32.33l-.024-.138-.024-.138L3.5,31.916l-.024-.139-.021-.142L3.432,31.5l-.02-.138-.021-.141-.017-.139-.021-.142L3.339,30.8l-.017-.141-.017-.142-.014-.142-.014-.138-.014-.142-.01-.144-.014-.139-.01-.142-.01-.145-.011-.142L3.2,29.241,3.191,29.1l-.007-.142-.007-.145,0-.142-.008-.145,0-.142,0-.145v-.141l0-.145,0-.146,0-.162,0-.162,0-.16,0-.162,0-.159.007-.159.007-.159.007-.162.006-.156.011-.158.011-.16.013-.158.01-.156.015-.159.013-.155.018-.16.017-.155.017-.156.017-.158.017-.156.021-.152L3.4,24.32l.024-.152.024-.156.021-.155.027-.155.025-.153.027-.155.028-.152.031-.149.028-.155.031-.152.031-.149.034-.152.031-.152.035-.152.034-.148.038-.153.035-.148.038-.149.041-.148.038-.149.042-.148.041-.146.042-.148.044-.149.042-.145.045-.145.045-.148.048-.146.048-.145.049-.141.048-.146.052-.145.048-.145.055-.142.052-.141.052-.145.055-.139.055-.141.055-.142L5,18.4l.059-.138.055-.141.062-.139.059-.138.062-.141.062-.135.062-.139.062-.138.066-.135.066-.138.062-.134.069-.135.069-.135.065-.135.073-.131.069-.135.069-.135.069-.131.076-.131.073-.135.072-.128.073-.131.079-.131L6.6,15.16l.075-.128.08-.128.079-.128.079-.131L7,14.52l.079-.127.08-.125.082-.128.083-.121.087-.127.083-.125.082-.121.087-.124.086-.121.086-.121.087-.124.089-.118.09-.121.09-.121.089-.117.094-.122.089-.113.094-.118.093-.117.093-.118.1-.114.093-.114.1-.114.1-.114.1-.114.1-.114.1-.11.1-.114.1-.108.1-.11.1-.111.1-.107.1-.111.1-.107.1-.107.1-.107.107-.1.1-.107.107-.1.107-.1.108-.1.11-.1.107-.1.111-.1.11-.1.107-.1.114-.1.111-.1.113-.1.114-.1.114-.1L12.09,8.7l.114-.1.114-.1.117-.093.118-.094.117-.093.114-.09.121-.09.117-.093.121-.09.12-.089.118-.091.125-.086.12-.086.121-.087.124-.086.121-.083.124-.083.125-.086.124-.083.128-.083.124-.079.124-.08.128-.08L15,6.6l.132-.079.127-.077.128-.079.128-.073.131-.079.131-.073.128-.072L16.036,6l.13-.076.132-.069.135-.069.131-.069.135-.073.134-.065.134-.07.135-.069.135-.062.138-.065.135-.066.138-.062.138-.063.134-.062L18.062,5l.138-.059.138-.062.141-.055.139-.059.141-.059.142-.055.141-.055.138-.055.145-.052.142-.052.142-.055.144-.049.145-.051.146-.049.141-.048.145-.049.145-.048.148-.045L20.768,4l.145-.041.149-.045.148-.042.145-.041.149-.042.148-.038.149-.041.148-.038.148-.035.152-.038L22.4,3.56l.151-.035.152-.031.152-.035L23,3.429l.152-.031.155-.028.149-.031.151-.028.155-.028.152-.024.156-.028.155-.02.156-.024.151-.025.155-.02.156-.021L25,3.1l.159-.018.155-.017.156-.017.159-.017.155-.015.159-.013L26.1,3l.159-.013.159-.01.159-.011.155-.007.162-.007.159-.007.159-.007.158,0,.163,0,.159,0,.162,0,.162,0,.158,0,.163,0,.159,0,.162,0,.158,0,.16.007.159.007.161.007.156.007.158.011.16.01L29.926,3l.156.011.158.013.156.015.159.017.155.017.156.017.158.018.155.017.156.021.155.02.152.025.155.024.156.02.155.028.152.024.155.028.152.028.149.031.155.028.152.031.148.03.152.035.152.031.152.035.149.034.151.038.148.035.149.038.148.041.149.038.148.042.145.041.149.042.148.045L35.256,4l.145.045.148.045.146.048.145.049.141.048.145.049.145.051.145.049.142.055.141.052.145.052.138.055.142.055.142.055.141.059.138.059.141.055.139.062L37.963,5l.141.062.135.062.138.063.138.062.137.066.135.065.135.062.134.069.135.07.135.065.134.073.132.069.134.069.132.069L39.989,6l.135.073.127.072.131.073.132.079.128.073.127.079.128.077.131.076.127.082.128.08.124.08.125.079.127.083.125.086.124.083.125.083.124.083.12.086.122.087.12.086.124.086.117.091.122.089.12.09.118.093.12.09.114.09.118.093.117.094.117.093.114.1.114.1.114.093.114.1.114.1.114.1.111.1.114.1.106.1.111.1.111.1.11.1.107.1.107.1.107.1.106.1.105.1.106.107.1.107.1.107.1.107.1.111.1.107.1.111.1.11.1.108.1.114.1.11.1.114.1.114.1.114.1.114.094.114.1.114.094.118.093.117.093.118.089.113.094.122.09.117.089.121.09.121.09.118.086.124.087.121.086.121.086.124.083.121.083.125.086.127.083.121.082.128.08.125.08.127.079.125.083.131.076.124.079.132.076.128.076.131.076.128.073.131.072.128.072.135.076.131.07.131.068.135.07.135.072.131.066.135.068.135.07.135.065.138.063.134.065.135.062.138.062.139.063.138.062.138.058.138.062.139.055.141.059.138.059.142.055.142.055.141.056.139.051.145.052.141.055.142.049.145.051.145.049.146.048.141.049.145.048.146.045.148.045.145.041.145.045.149.042.148.041.146.041.148.038.149.042.148.038.149.034.148.038.153.034.148.035.152.031.152.035.152.031.149.031.152.027.155.032.149.027.152.028.155.024.153.027.155.021.155.025.156.024.152.02.159.021.152.017.156.018.158.017.156.017.155.018.16.013.155.014.159.011.156.013.158.011.16.009.158.008.156.006.162.007.159.008.159,0,.159,0,.162,0,.16,0,.162,0,.162Z" transform="translate(-2.079 -1.842)"/><polygon class="cls-3" points="25.952 3.321 27.115 3.348 28.261 3.438 29.394 3.58 30.509 3.78 31.603 4.033 32.676 4.336 33.73 4.696 34.755 5.101 35.759 5.553 36.733 6.054 37.682 6.6 38.6 7.187 39.487 7.819 40.34 8.493 41.161 9.205 41.948 9.955 42.698 10.739 43.409 11.562 44.079 12.419 44.71 13.307 45.301 14.226 45.842 15.173 46.343 16.151 46.795 17.153 47.203 18.183 47.558 19.233 47.862 20.307 48.114 21.403 48.314 22.519 48.459 23.652 48.545 24.803 48.577 25.967 48.545 27.132 48.459 28.283 48.314 29.416 48.114 30.532 47.862 31.628 47.558 32.703 47.203 33.753 46.795 34.783 46.343 35.785 45.842 36.762 45.301 37.709 44.71 38.629 44.079 39.517 43.409 40.373 42.698 41.196 41.948 41.981 41.161 42.731 40.34 43.441 39.487 44.116 38.6 44.748 37.682 45.336 36.733 45.881 35.759 46.383 34.755 46.836 33.73 47.239 32.676 47.596 31.603 47.903 30.509 48.155 29.394 48.352 28.261 48.498 27.115 48.587 25.952 48.615 24.785 48.587 23.636 48.498 22.504 48.352 21.392 48.155 20.298 47.903 19.224 47.596 18.171 47.239 17.146 46.836 16.141 46.383 15.168 45.881 14.219 45.336 13.301 44.748 12.414 44.116 11.561 43.441 10.739 42.731 9.952 41.981 9.203 41.196 8.492 40.373 7.823 39.517 7.191 38.629 6.6 37.709 6.059 36.762 5.558 35.785 5.106 34.783 4.699 33.753 4.343 32.703 4.039 31.628 3.787 30.532 3.587 29.416 3.442 28.283 3.355 27.132 3.328 25.967 3.355 24.803 3.442 23.652 3.587 22.519 3.787 21.403 4.039 20.307 4.343 19.233 4.699 18.183 5.106 17.153 5.558 16.151 6.059 15.173 6.6 14.226 7.191 13.307 7.823 12.419 8.492 11.562 9.203 10.739 9.952 9.955 10.739 9.205 11.561 8.493 12.414 7.819 13.301 7.187 14.219 6.6 15.168 6.054 16.141 5.553 17.146 5.101 18.171 4.696 19.224 4.336 20.298 4.033 21.392 3.78 22.504 3.58 23.636 3.438 24.785 3.348 25.952 3.321 25.952 3.321"/><polygon class="cls-4" points="25.952 3.321 27.115 3.348 28.261 3.438 29.394 3.58 30.509 3.78 31.603 4.033 32.676 4.336 33.73 4.696 34.755 5.101 35.759 5.553 36.733 6.054 37.682 6.6 38.6 7.187 39.487 7.819 40.34 8.493 41.161 9.205 41.948 9.955 42.698 10.739 43.409 11.562 44.079 12.419 44.71 13.307 45.301 14.226 45.842 15.173 46.343 16.151 46.795 17.153 47.203 18.183 47.558 19.233 47.862 20.307 48.114 21.403 48.314 22.519 48.459 23.652 48.545 24.803 48.577 25.967 48.545 27.132 48.459 28.283 48.314 29.416 48.114 30.532 47.862 31.628 47.558 32.703 47.203 33.753 46.795 34.783 46.343 35.785 45.842 36.762 45.301 37.709 44.71 38.629 44.079 39.517 43.409 40.373 42.698 41.196 41.948 41.981 41.161 42.731 40.34 43.441 39.487 44.116 38.6 44.748 37.682 45.336 36.733 45.881 35.759 46.383 34.755 46.836 33.73 47.239 32.676 47.596 31.603 47.903 30.509 48.155 29.394 48.352 28.261 48.498 27.115 48.587 25.952 48.615 24.785 48.587 23.636 48.498 22.504 48.352 21.392 48.155 20.298 47.903 19.224 47.596 18.171 47.239 17.146 46.836 16.141 46.383 15.168 45.881 14.219 45.336 13.301 44.748 12.414 44.116 11.561 43.441 10.739 42.731 9.952 41.981 9.203 41.196 8.492 40.373 7.823 39.517 7.191 38.629 6.6 37.709 6.059 36.762 5.558 35.785 5.106 34.783 4.699 33.753 4.343 32.703 4.039 31.628 3.787 30.532 3.587 29.416 3.442 28.283 3.355 27.132 3.328 25.967 3.355 24.803 3.442 23.652 3.587 22.519 3.787 21.403 4.039 20.307 4.343 19.233 4.699 18.183 5.106 17.153 5.558 16.151 6.059 15.173 6.6 14.226 7.191 13.307 7.823 12.419 8.492 11.562 9.203 10.739 9.952 9.955 10.739 9.205 11.561 8.493 12.414 7.819 13.301 7.187 14.219 6.6 15.168 6.054 16.141 5.553 17.146 5.101 18.171 4.696 19.224 4.336 20.298 4.033 21.392 3.78 22.504 3.58 23.636 3.438 24.785 3.348 25.952 3.321 25.952 3.321"/><polygon class="cls-5" points="21.247 34.113 21.471 34.25 21.685 34.397 21.891 34.551 22.088 34.716 22.27 34.892 22.445 35.07 22.609 35.26 22.767 35.453 22.911 35.656 23.044 35.864 23.17 36.076 23.282 36.298 23.384 36.519 23.475 36.746 23.556 36.978 23.626 37.213 23.681 37.452 23.727 37.694 23.762 37.936 23.787 38.181 23.797 38.427 23.797 38.675 23.783 38.921 23.762 39.167 23.724 39.415 23.674 39.661 23.611 39.906 23.538 40.148 23.454 40.387 23.352 40.626 23.24 40.86 23.114 41.092 22.978 41.316 22.83 41.53 22.676 41.733 22.511 41.93 22.34 42.115 22.158 42.291 21.968 42.456 21.776 42.61 21.573 42.758 21.366 42.89 21.152 43.013 20.935 43.126 20.71 43.231 20.483 43.322 20.252 43.403 20.017 43.469 19.779 43.529 19.537 43.574 19.295 43.61 19.05 43.634 18.805 43.645 18.559 43.645 18.311 43.631 18.065 43.606 17.817 43.571 17.571 43.522 17.33 43.459 17.088 43.385 16.846 43.297 16.608 43.2 16.373 43.087 16.146 42.961 15.921 42.824 15.704 42.676 15.501 42.519 15.305 42.354 15.119 42.182 14.944 42.003 14.779 41.814 14.625 41.618 14.478 41.418 14.345 41.208 14.222 40.997 14.11 40.776 14.005 40.552 13.918 40.327 13.837 40.096 13.767 39.857 13.71 39.619 13.662 39.381 13.626 39.139 13.606 38.893 13.592 38.647 13.592 38.398 13.606 38.153 13.63 37.904 13.669 37.659 13.718 37.413 13.777 37.167 13.851 36.925 13.938 36.687 14.04 36.449 14.152 36.213 14.278 35.982 14.415 35.758 14.559 35.543 14.716 35.337 14.881 35.144 15.053 34.958 15.235 34.783 15.42 34.619 15.617 34.46 15.817 34.317 16.026 34.183 16.24 34.061 16.457 33.944 16.681 33.843 16.909 33.752 17.141 33.671 17.376 33.601 17.614 33.545 17.852 33.499 18.097 33.465 18.339 33.44 18.584 33.43 18.833 33.43 19.078 33.443 19.327 33.468 19.572 33.503 19.817 33.553 20.062 33.615 20.304 33.689 20.546 33.776 20.781 33.875 21.015 33.987 21.247 34.113 21.247 34.113"/><polygon class="cls-6" points="42.482 36.236 42.372 36.415 42.25 36.588 42.121 36.752 41.985 36.904 41.846 37.05 41.697 37.187 41.543 37.316 41.388 37.436 41.222 37.547 41.056 37.649 40.884 37.743 40.71 37.825 40.528 37.901 40.349 37.967 40.162 38.024 39.976 38.075 39.788 38.115 39.598 38.143 39.407 38.166 39.215 38.18 39.024 38.183 38.833 38.181 38.64 38.167 38.449 38.142 38.26 38.11 38.071 38.07 37.885 38.019 37.7 37.958 37.519 37.89 37.341 37.813 37.167 37.728 36.995 37.631 36.813 37.518 36.641 37.396 36.476 37.27 36.315 37.134 36.165 36.996 36.022 36.851 35.885 36.697 35.758 36.541 35.639 36.382 35.526 36.214 35.424 36.041 35.33 35.869 35.244 35.689 35.168 35.507 35.099 35.325 35.042 35.139 34.991 34.948 34.952 34.756 34.918 34.563 34.898 34.367 34.884 34.174 34.885 33.977 34.893 33.781 34.911 33.583 34.939 33.386 34.98 33.19 35.029 32.994 35.088 32.8 35.16 32.611 35.243 32.418 35.336 32.229 35.437 32.044 35.553 31.864 35.673 31.695 35.803 31.531 35.935 31.376 36.079 31.229 36.226 31.095 36.38 30.966 36.538 30.848 36.704 30.738 36.872 30.636 37.045 30.543 37.223 30.46 37.403 30.386 37.59 30.321 37.776 30.266 37.969 30.22 38.16 30.181 38.354 30.152 38.55 30.133 38.747 30.126 38.946 30.122 39.144 30.133 39.345 30.152 39.544 30.178 39.742 30.215 39.941 30.265 40.139 30.318 40.331 30.385 40.527 30.461 40.717 30.547 40.905 30.641 41.092 30.745 41.258 30.852 41.417 30.963 41.571 31.082 41.716 31.209 41.858 31.341 41.99 31.485 42.117 31.628 42.236 31.779 42.346 31.937 42.451 32.1 42.546 32.264 42.632 32.437 42.713 32.61 42.784 32.788 42.848 32.971 42.903 33.156 42.947 33.343 42.988 33.533 43.013 33.725 43.035 33.918 43.044 34.112 43.044 34.308 43.033 34.503 43.015 34.701 42.984 34.895 42.944 35.092 42.896 35.285 42.833 35.48 42.763 35.672 42.681 35.864 42.589 36.051 42.482 36.236 42.482 36.236"/><polygon class="cls-6" points="16.018 20.514 15.903 20.695 15.782 20.863 15.655 21.029 15.52 21.182 15.378 21.326 15.232 21.464 15.078 21.594 14.92 21.713 14.757 21.824 14.589 21.925 14.416 22.019 14.243 22.101 14.064 22.179 13.881 22.243 13.697 22.303 13.508 22.35 13.322 22.393 13.133 22.421 12.943 22.444 12.75 22.457 12.556 22.459 12.365 22.457 12.172 22.443 11.982 22.419 11.793 22.386 11.604 22.346 11.417 22.295 11.234 22.238 11.052 22.167 10.873 22.088 10.698 22.005 10.528 21.907 10.346 21.795 10.174 21.672 10.008 21.545 9.849 21.414 9.697 21.272 9.554 21.127 9.42 20.975 9.292 20.818 9.171 20.658 9.061 20.492 8.959 20.319 8.862 20.144 8.779 19.967 8.703 19.785 8.631 19.601 8.574 19.414 8.522 19.224 8.484 19.032 8.453 18.841 8.434 18.644 8.42 18.451 8.417 18.253 8.425 18.057 8.443 17.859 8.474 17.665 8.512 17.466 8.564 17.272 8.623 17.078 8.693 16.886 8.775 16.694 8.866 16.508 8.972 16.322 9.085 16.14 9.206 15.97 9.335 15.807 9.47 15.654 9.612 15.509 9.758 15.372 9.915 15.244 10.071 15.124 10.237 15.013 10.405 14.913 10.578 14.824 10.758 14.738 10.939 14.664 11.121 14.599 11.308 14.542 11.5 14.496 11.691 14.457 11.889 14.43 12.083 14.413 12.28 14.401 12.479 14.403 12.679 14.411 12.878 14.428 13.077 14.458 13.275 14.495 13.473 14.541 13.668 14.597 13.866 14.663 14.059 14.737 14.249 14.822 14.437 14.918 14.624 15.022 14.79 15.128 14.949 15.238 15.103 15.358 15.251 15.487 15.388 15.62 15.522 15.76 15.648 15.907 15.766 16.058 15.878 16.214 15.983 16.376 16.076 16.543 16.167 16.714 16.247 16.891 16.319 17.066 16.383 17.249 16.435 17.432 16.483 17.621 16.519 17.811 16.549 18.002 16.567 18.194 16.574 18.391 16.576 18.585 16.568 18.78 16.547 18.978 16.519 19.173 16.478 19.37 16.427 19.564 16.367 19.758 16.298 19.95 16.213 20.14 16.122 20.327 16.018 20.514 16.018 20.514"/><polygon class="cls-6" points="37.246 14.936 37.134 15.119 37.013 15.287 36.883 15.452 36.749 15.604 36.608 15.753 36.46 15.886 36.307 16.016 36.148 16.135 35.985 16.246 35.819 16.349 35.647 16.443 35.469 16.527 35.292 16.601 35.112 16.667 34.926 16.725 34.739 16.774 34.55 16.815 34.36 16.846 34.169 16.87 33.978 16.88 33.786 16.886 33.592 16.88 33.403 16.868 33.213 16.843 33.022 16.813 32.835 16.77 32.648 16.719 32.462 16.661 32.282 16.593 32.103 16.515 31.93 16.428 31.759 16.331 31.577 16.218 31.403 16.099 31.237 15.972 31.077 15.837 30.928 15.696 30.785 15.551 30.647 15.4 30.52 15.241 30.402 15.082 30.289 14.915 30.186 14.744 30.093 14.568 30.005 14.392 29.929 14.21 29.862 14.026 29.802 13.837 29.754 13.647 29.715 13.456 29.682 13.263 29.66 13.07 29.648 12.874 29.648 12.678 29.657 12.481 29.674 12.283 29.703 12.087 29.744 11.89 29.79 11.697 29.851 11.5 29.924 11.311 30.006 11.118 30.097 10.932 30.2 10.744 30.316 10.564 30.436 10.395 30.566 10.231 30.699 10.076 30.84 9.932 30.99 9.796 31.143 9.667 31.302 9.548 31.468 9.438 31.636 9.337 31.807 9.246 31.985 9.162 32.167 9.087 32.352 9.024 32.539 8.967 32.728 8.919 32.923 8.881 33.115 8.855 33.311 8.836 33.51 8.826 33.707 8.826 33.908 8.833 34.109 8.852 34.305 8.88 34.503 8.918 34.704 8.965 34.899 9.021 35.095 9.085 35.288 9.164 35.48 9.247 35.668 9.342 35.854 9.448 36.021 9.553 36.18 9.663 36.332 9.786 36.48 9.909 36.619 10.045 36.753 10.185 36.879 10.332 36.998 10.482 37.11 10.638 37.211 10.798 37.307 10.968 37.395 11.137 37.475 11.314 37.546 11.492 37.611 11.671 37.665 11.856 37.711 12.044 37.749 12.235 37.777 12.425 37.794 12.619 37.805 12.815 37.807 13.008 37.796 13.203 37.775 13.399 37.747 13.596 37.706 13.793 37.658 13.989 37.596 14.18 37.526 14.371 37.443 14.564 37.353 14.751 37.246 14.936 37.246 14.936"/></svg>