<?xml version="1.0" encoding="utf-8"?>
<!-- Generator: Adobe Illustrator 16.0.4, SVG Export Plug-In . SVG Version: 6.00 Build 0)  -->
<!DOCTYPE svg PUBLIC "-//W3C//DTD SVG 1.1//EN" "http://www.w3.org/Graphics/SVG/1.1/DTD/svg11.dtd">
<svg version="1.1" id="Ebene_1" xmlns="http://www.w3.org/2000/svg" xmlns:xlink="http://www.w3.org/1999/xlink" x="0px" y="0px"
	 width="162px" height="88px" viewBox="-0.212 -0.063 162 88" enable-background="new -0.212 -0.063 162 88" xml:space="preserve">
<g>
	<path fill="#7E7C79" d="M99.977,78.54h5.283c-0.008-2.374-0.361-2.531-2.676-2.531C100.114,76.008,99.981,76.535,99.977,78.54
		 M69.021,86.095h-3.076V73.762h3.076V86.095z M44.63,86.234c-3.259,0-5.612,0-5.612-4.044v-0.08h3.073l0.002,0.078
		c0.043,1.665,0.352,1.893,2.537,1.893h0.27c1.625,0,2.406-0.062,2.406-1.542c0-1.013,0-1.52-2.932-1.566
		c-4.505-0.07-5.356-0.684-5.356-3.862c0-3.485,2.601-3.485,5.612-3.485c2.241,0,5.312,0,5.312,3.532v0.081h-3.076v-0.081
		c0-1.38-0.701-1.38-2.236-1.38c-1.583,0-2.537,0-2.537,1.518c0,1.129,0.236,1.174,2.795,1.29c0.211,0.01,0.419,0.018,0.625,0.027
		c2.613,0.104,4.869,0.194,4.869,3.927C50.382,85.95,47.662,86.234,44.63,86.234 M56.531,86.234c-2.812,0-4.132-1.137-4.153-3.577
		v-8.895h3.074v7.756c0,1.728,0.161,2.333,1.959,2.333c2.103,0,2.885-0.808,2.885-2.98v-7.108h3.076v12.333h-2.984v-1.783
		C59.588,86.03,57.811,86.234,56.531,86.234 M76.721,86.234c-3.258,0-5.614,0-5.614-4.044v-0.08h3.075l0.002,0.078
		c0.044,1.665,0.352,1.893,2.537,1.893h0.27c1.625,0,2.406-0.062,2.406-1.542c0-0.979,0-1.52-2.932-1.566
		c-4.506-0.07-5.358-0.684-5.358-3.862c0-3.485,2.602-3.485,5.614-3.485c2.242,0,5.312,0,5.312,3.532v0.081h-3.076v-0.081
		c0-1.38-0.7-1.38-2.236-1.38c-1.582,0-2.537,0-2.537,1.518c0,1.129,0.236,1.174,2.796,1.29c0.21,0.01,0.419,0.018,0.625,0.027
		c2.612,0.104,4.869,0.194,4.869,3.927C82.473,85.95,79.751,86.234,76.721,86.234 M89.618,86.234c-3.258,0-5.613,0-5.613-4.044
		v-0.08h3.073l0.002,0.078c0.046,1.665,0.353,1.893,2.538,1.893h0.27c1.626,0,2.407-0.062,2.407-1.542c0-0.979,0-1.52-2.933-1.566
		c-4.506-0.07-5.357-0.684-5.357-3.862c0-3.485,2.602-3.485,5.613-3.485c2.242,0,5.312,0,5.312,3.532v0.081h-3.076v-0.081
		c0-1.38-0.699-1.38-2.236-1.38c-1.581,0-2.538,0-2.538,1.518c0,1.129,0.237,1.174,2.797,1.29c0.21,0.01,0.419,0.018,0.624,0.027
		c2.612,0.104,4.868,0.194,4.868,3.927C95.368,85.95,92.649,86.234,89.618,86.234 M102.584,86.234c-4.825,0-5.684-1.643-5.684-6.271
		c0-4.469,0.791-6.338,5.684-6.338c5.035,0,5.75,1.459,5.75,6.847v0.081h-8.357c0.002,2.609,0.129,3.298,2.607,3.298h0.12
		c1.539,0,2.555,0,2.555-1.708v-0.08h3.075v0.08C108.334,85.958,106.162,86.234,102.584,86.234"/>
	<path fill="#56524E" d="M6.362,59.867h5.283c-0.008-2.372-0.363-2.529-2.676-2.529C6.498,57.337,6.365,57.864,6.362,59.867
		 M25.394,59.867h5.283c-0.008-2.372-0.362-2.529-2.676-2.529C25.53,57.337,25.396,57.864,25.394,59.867 M75.047,57.337
		c-2.505,0-2.723,0.646-2.723,3.953c0,3.25,0.218,3.886,2.723,3.886s2.723-0.637,2.723-3.886
		C77.769,57.984,77.552,57.337,75.047,57.337 M20.046,67.42H16.97V52.482h3.076V67.42z M61.443,67.42h-3.076V55.093h3.009
		l-0.066,1.546c0.534-1.134,1.607-1.685,3.273-1.685c2.884,0,3.273,1.973,3.273,3.9v1.057h-2.89v-0.707
		c0-1.27-0.138-1.865-1.402-1.865c-0.724,0-1.244,0.173-1.59,0.527c-0.384,0.394-0.558,1.037-0.531,1.963V67.42z M8.969,67.56
		c-4.823,0-5.682-1.644-5.682-6.27c0-4.469,0.79-6.337,5.682-6.337c5.036,0,5.752,1.459,5.752,6.847v0.081H6.362
		c0.002,2.609,0.129,3.295,2.607,3.295H9.09c1.539,0,2.556,0,2.556-1.708v-0.079h3.076v0.079
		C14.721,67.285,12.548,67.56,8.969,67.56 M28.001,67.56c-4.824,0-5.682-1.644-5.682-6.27c0-4.469,0.79-6.337,5.682-6.337
		c5.035,0,5.751,1.459,5.751,6.847v0.081h-8.359c0.002,2.609,0.128,3.295,2.607,3.295h0.121c1.538,0,2.555,0,2.555-1.708v-0.079
		h3.076v0.079C33.752,67.285,31.579,67.56,28.001,67.56 M41.127,67.56c-4.437,0-5.521-1.235-5.521-6.293
		c0-2.096,0.162-3.709,0.947-4.766c0.799-1.07,2.21-1.548,4.573-1.548c3.803,0,5.613,0.67,5.613,4.481v0.082h-3.074v-0.082
		c0-1.822-0.572-2.098-2.538-2.098c-2.444,0-2.444,0.833-2.444,3.93v0.158c-0.001,1.441-0.001,2.394,0.306,2.971
		c0.298,0.561,0.898,0.78,2.139,0.78c2.35,0,2.538-0.373,2.538-2.471v-0.08h3.075v0.08C46.741,66.886,45.085,67.56,41.127,67.56
		 M53.029,67.56c-3.334,0-4.247-0.839-4.247-3.904v-6.179h-1.528v-2.384h1.528v-2.759h3.075v2.759h4.654v2.384h-4.654v6.183
		c0.024,1.104,0.033,1.517,1.172,1.517c0.47,0,0.805-0.108,1.023-0.328c0.378-0.386,0.37-1.078,0.36-1.811
		c-0.002-0.118-0.003-0.237-0.003-0.355v-0.08h2.727l0.001,0.08c0.026,2.075-0.262,3.264-0.964,3.975
		C55.557,67.281,54.587,67.56,53.029,67.56 M75.047,67.56c-5.038,0-5.798-1.418-5.798-6.293c0-4.892,0.761-6.313,5.798-6.313
		c5.037,0,5.797,1.422,5.797,6.313C80.845,66.142,80.084,67.56,75.047,67.56"/>
	<path fill="#88bd24" d="M113.077,11.734c-4.071,0-6.138,0.948-6.138,6.132c0,5.183,2.066,6.131,6.138,6.131
		c5.178,0,6.122-2.064,6.122-6.131C119.199,12.683,117.139,11.734,113.077,11.734"/>
	<path fill="#88bd24" d="M113.327,61.765c5.176,0,6.122-2.063,6.122-6.13c0-5.184-2.062-6.132-6.122-6.132
		c-4.073,0-6.139,0.948-6.139,6.132C107.188,60.817,109.253,61.765,113.327,61.765"/>
	<path fill="#88bd24" d="M102.725,41.772c-4.479,0-5.354,1.967-5.354,5.361c0,4.509,1.883,5.362,5.354,5.362
		c3.483,0,5.369-0.853,5.369-5.362C108.095,42.626,106.208,41.772,102.725,41.772"/>
	<path fill="#88bd24" d="M102.725,21.327c-4.499,0-5.354,1.885-5.354,5.363c0,4.507,1.883,5.362,5.354,5.362
		c3.483,0,5.369-0.854,5.369-5.362C108.095,22.181,106.208,21.327,102.725,21.327"/>
	<path opacity="0.5" fill="#88bd24" enable-background="new    " d="M91.446,21.328c3.029,0,3.996,0.452,3.996,3.986
		c0,3.537-0.967,3.988-3.996,3.988 M91.446,29.302c-3.013,0-3.979-0.452-3.979-3.988c0-3.534,0.966-3.986,3.979-3.986"/>
	<path opacity="0.3" fill="#88bd24" enable-background="new    " d="M81.041,12.371c2.111,0,2.784,0.314,2.784,2.778
		c0,2.464-0.675,2.778-2.784,2.778 M81.041,17.927c-2.101,0-2.773-0.314-2.773-2.778c0-2.464,0.673-2.778,2.773-2.778"/>
	<path opacity="0.3" fill="#88bd24" enable-background="new    " d="M71.739,21.328c2.111,0,2.783,0.315,2.783,2.779
		s-0.672,2.778-2.783,2.778 M71.739,26.886c-2.101,0-2.773-0.314-2.773-2.778s0.672-2.779,2.773-2.779"/>
	<path opacity="0.5" fill="#88bd24" enable-background="new    " d="M101.351,11.665c3.029,0,3.995,0.452,3.995,3.986
		c0,3.536-0.966,3.987-3.995,3.987 M101.351,19.638c-3.013,0-3.979-0.451-3.979-3.987c0-3.534,0.967-3.986,3.979-3.986"/>
	<path opacity="0.5" fill="#88bd24" enable-background="new    " d="M101.351,53.943c3.029,0,3.995,0.453,3.995,3.986
		c0,3.535-0.966,3.985-3.995,3.985 M101.351,61.915c-3.013,0-3.979-0.451-3.979-3.985c0-3.533,0.967-3.986,3.979-3.986"/>
	<path opacity="0.5" fill="#88bd24" enable-background="new    " d="M91.446,44.522c3.029,0,3.996,0.45,3.996,3.983
		s-0.967,3.988-3.996,3.988 M91.446,52.494c-3.013,0-3.979-0.453-3.979-3.987s0.966-3.983,3.979-3.983"/>
	<path fill="#88bd24" d="M93.742,30.659c-5.178,0-6.124,2.064-6.124,6.133c0,5.183,2.062,6.131,6.124,6.131
		c4.072,0,6.14-0.948,6.14-6.131C99.881,31.607,97.814,30.659,93.742,30.659"/>
	<path opacity="0.5" fill="#88bd24" enable-background="new    " d="M117.306,5.619c0,3.029-0.453,3.994-3.987,3.994
		s-3.987-0.965-3.987-3.994 M109.332,5.619c0-3.014,0.453-3.979,3.987-3.979s3.987,0.965,3.987,3.979"/>
	<path opacity="0.3" fill="#88bd24" enable-background="new    " d="M90.6,5.924c2.171,0,2.862,0.323,2.862,2.856
		c0,2.532-0.691,2.856-2.862,2.856 M90.6,11.636c-2.158,0-2.85-0.324-2.85-2.856c0-2.533,0.691-2.856,2.85-2.856"/>
	<path opacity="0.3" fill="#88bd24" enable-background="new    " d="M78.667,2.365c-1.395,0-1.839,0.208-1.839,1.836
		c0,1.627,0.444,1.835,1.839,1.835 M78.667,6.036c1.387,0,1.832-0.208,1.832-1.835c0-1.629-0.445-1.836-1.832-1.836"/>
	<path fill="#88bd24" d="M124.006,32.022c4.479,0,5.355-1.968,5.355-5.364c0-4.484-1.966-5.362-5.355-5.362
		c-3.481,0-5.367,0.854-5.367,5.362C118.637,31.167,120.525,32.022,124.006,32.022"/>
	<path opacity="0.5" fill="#88bd24" enable-background="new    " d="M125.382,11.634c-3.031,0-3.996,0.453-3.996,3.987
		s0.965,3.987,3.996,3.987 M125.382,19.607c3.012,0,3.979-0.452,3.979-3.987s-0.968-3.987-3.979-3.987"/>
	<path fill="#C7C7C6" d="M136.608,8.852c0,2.11-0.316,2.783-2.778,2.783c-2.465,0-2.778-0.673-2.778-2.783 M131.051,8.852
		c0-2.1,0.313-2.773,2.778-2.773c2.462,0,2.778,0.673,2.778,2.773"/>
	<path fill="#C7C7C6" d="M146.902,1.64c-1.651,0-2.177,0.247-2.177,2.173c0,1.929,0.525,2.177,2.177,2.177 M146.902,5.989
		c1.644,0,2.172-0.247,2.172-2.177c0-1.927-0.527-2.173-2.172-2.173"/>
	<path fill="#7E7C79" d="M124.006,41.742c-3.481,0-5.367,0.853-5.367,5.362c0,4.507,1.886,5.36,5.367,5.36
		c4.479,0,5.355-1.964,5.355-5.36C129.362,42.619,127.396,41.742,124.006,41.742"/>
	<path fill="#A7A6A5" d="M135.288,21.226c-3.03,0-3.997,0.451-3.997,3.986c0,3.536,0.967,3.987,3.997,3.987 M135.288,29.199
		c3.012,0,3.979-0.452,3.979-3.987c0-3.535-0.967-3.986-3.979-3.986"/>
	<path fill="#C7C7C6" d="M146.397,11.634c-2.11,0-2.783,0.315-2.783,2.78c0,2.463,0.673,2.778,2.783,2.778 M146.397,17.193
		c2.101,0,2.774-0.315,2.774-2.778c0-2.465-0.674-2.78-2.774-2.78"/>
	<path fill="#7E7C79" d="M132.992,42.894c5.176,0,6.123-2.065,6.123-6.133c0-5.183-2.062-6.131-6.123-6.131
		c-4.073,0-6.14,0.949-6.14,6.131C126.852,41.944,128.918,42.894,132.992,42.894"/>
	<g>
		<path fill="#A7A6A5" d="M144.983,32.906c-3.029,0-3.995,0.451-3.995,3.985c0,3.537,0.966,3.987,3.995,3.987 M144.983,40.878
			c3.013,0,3.979-0.45,3.979-3.987c0-3.534-0.966-3.985-3.979-3.985"/>
		<path fill="#C7C7C6" d="M145.604,53.643c-2.109,0-2.784,0.313-2.784,2.778c0,2.462,0.675,2.778,2.784,2.778 M145.604,59.2
			c2.101,0,2.772-0.316,2.772-2.778c0-2.465-0.672-2.778-2.772-2.778"/>
		<path fill="#A7A6A5" d="M125.39,54.016c-3.028,0-3.994,0.45-3.994,3.985c0,3.534,0.966,3.987,3.994,3.987 M125.39,61.989
			c3.014,0,3.979-0.453,3.979-3.987c0-3.535-0.966-3.985-3.979-3.985"/>
		<path fill="#A7A6A5" d="M135.438,44.679c-3.031,0-3.997,0.452-3.997,3.985c0,3.535,0.966,3.985,3.997,3.985 M135.438,52.65
			c3.011,0,3.979-0.45,3.979-3.985c0-3.533-0.969-3.985-3.979-3.985"/>
		<path fill="#C7C7C6" d="M155.515,47.08c-2.11,0-2.784,0.313-2.784,2.778c0,2.463,0.674,2.778,2.784,2.778 M155.515,52.636
			c2.1,0,2.772-0.315,2.772-2.778c0-2.465-0.673-2.778-2.772-2.778"/>
	</g>
</g>
</svg>